<?xml version="1.0" encoding="utf-8"?>
<!-- Generator: Adobe Illustrator 24.2.0, SVG Export Plug-In . SVG Version: 6.00 Build 0)  -->
<svg version="1.1" id="Capa_1" xmlns="http://www.w3.org/2000/svg" xmlns:xlink="http://www.w3.org/1999/xlink" x="0px" y="0px"
	 viewBox="0 0 512 512" style="enable-background:new 0 0 512 512;" xml:space="preserve">
<style type="text/css">
	.st0{fill:#8288CB;}
	.st1{fill:#676FB2;}
	.st2{fill:#FFB357;}
	.st3{fill:#FC8A3D;}
	.st4{fill:#EFEDFF;}
	.st5{fill:#D4D4FF;}
	.st6{fill:#BF8A70;}
	.st7{fill:#D2A087;}
	.st8{fill:#313D40;}
	.st9{fill:#CE857A;}
	.st10{fill:#FF8E9E;}
	.st11{fill:#EA5B70;}
	.st12{fill:#B9F0FF;}
</style>
<path class="st0" d="M272.6,8.9C260,3.2,246,0,231.3,0c-55.5,0-100.4,45-100.4,100.4s45,100.4,100.4,100.4c14.7,0,28.7-3.2,41.3-8.9
	c34.8-15.8,59.1-50.8,59.1-91.5S307.4,24.7,272.6,8.9z"/>
<path class="st1" d="M213.5,100.4c0-40.7,24.2-75.7,59.1-91.5C260,3.2,246,0,231.3,0c-55.5,0-100.4,45-100.4,100.4
	s45,100.4,100.4,100.4c14.7,0,28.7-3.2,41.3-8.9C237.8,176.1,213.5,141.1,213.5,100.4L213.5,100.4z"/>
<path class="st2" d="M273.4,505.6c12.6-5.6,25.8-8.3,39.2-11c-0.2-5.9-0.9-11.7-2-17.3c-2.8-13.7-8.3-26.3-15.8-37
	c-11.7-16.5-28.3-28.4-47.3-32.8c-5.2-1.2-10.6-1.8-16.2-1.8c-25.6,0-48.5,13.5-63.5,34.6c-10.4,14.6-16.9,32.9-17.8,52.8
	c12.7,4.1,25,9.3,37.8,13.1c3.4,1,6.2,3.1,8,5.8h72C268.9,509.2,270.7,506.8,273.4,505.6L273.4,505.6z"/>
<path class="st3" d="M232.6,501.7c-6.1-22.6-9.2-46-9.2-69.5v-26c-22.4,2.6-42.1,15.3-55.5,34.1c-2.7,3.8-5.1,7.8-7.3,12
	c-6.2,12.1-9.9,26-10.6,40.8c12.7,4.1,25,9.3,37.8,13.1c3.4,1,6.2,3.1,8,5.8h39.5L232.6,501.7z"/>
<g>
	<path class="st4" d="M159.9,440.3c-12.6,15.8-20.2,35.9-20.2,57.7v14h58.6c-7.8-25.9-11.8-52.8-11.8-79.8v-14.7
		C176.3,423.3,167.2,431.1,159.9,440.3L159.9,440.3z"/>
	<path class="st4" d="M302.7,440.3c12.6,15.8,20.2,35.9,20.2,57.7v14h-58.6c7.8-25.9,11.8-52.8,11.8-79.8v-14.7
		C286.3,423.3,295.3,431.1,302.7,440.3L302.7,440.3z"/>
</g>
<g>
	<path class="st5" d="M186.5,432.2v-14.7c-10.3,5.8-19.3,13.6-26.7,22.8c-1.1,1.4-2.2,2.8-3.2,4.3c-3.5,4.9-3.1,11.6,0.9,16.2
		l13.9,16.3l-3.8,9.9c-2.7,7.1,1,15,8.2,17.4l22.5,7.6C190.5,486.1,186.5,459.2,186.5,432.2L186.5,432.2z"/>
	<path class="st5" d="M276,432.2v-14.7c10.3,5.8,19.3,13.6,26.7,22.8c1.1,1.4,2.2,2.8,3.2,4.3c3.5,4.9,3.1,11.6-0.8,16.2l-13.9,16.3
		l3.8,9.9c2.7,7.1-1,15-8.2,17.4l-22.5,7.6C272,486.1,276,459.2,276,432.2L276,432.2z"/>
</g>
<path class="st6" d="M231.3,382l-44.7,35.4c5.1,31.5,24.9,47.2,44.7,47.3c19.8,0,39.6-15.7,44.7-47.3L231.3,382z"/>
<path class="st6" d="M402.6,254.5H60c-22.8,0-41.3,18.5-41.3,41.3c0,22.8,18.5,41.3,41.3,41.3h342.6c22.8,0,41.3-18.5,41.3-41.3
	C443.9,273,425.4,254.5,402.6,254.5L402.6,254.5z"/>
<path class="st7" d="M231.3,102.5c-9.7,0-171.3,64.7-171.3,149.6S121.7,407.4,202.7,421c9.3,1.6,18.8,2.4,28.5,2.4
	c9.7,0,19.2-0.8,28.5-2.4c81-13.6,142.8-84,142.8-168.9S241,102.5,231.3,102.5L231.3,102.5z"/>
<path class="st6" d="M116.8,252.4c0-2.4,0.1-4.9,0.2-7.3c-18.5,7.1-37.4,13.6-56.6,18.4c5.2,79.8,65,144.6,142.4,157.6
	c9.3,1.6,18.8,2.4,28.5,2.4c9.7,0,19.2-0.8,28.5-2.4C178.7,407.5,116.8,337.4,116.8,252.4L116.8,252.4z"/>
<path class="st8" d="M231.3,335.6c-7.6,0-14.8-3.3-19.7-9c-2.8-3.2-2.5-8.1,0.7-10.9c3.2-2.8,8.1-2.5,10.9,0.7c2,2.3,5,3.7,8.1,3.7
	s6-1.3,8.1-3.7c2.8-3.2,7.7-3.6,10.9-0.7c3.2,2.8,3.6,7.7,0.7,10.9C246,332.4,238.8,335.6,231.3,335.6L231.3,335.6z"/>
<g>
	<ellipse class="st6" cx="136.8" cy="337.2" rx="34.3" ry="27.2"/>
	<ellipse class="st6" cx="325.8" cy="337.2" rx="34.3" ry="27.2"/>
</g>
<path class="st0" d="M399.2,218.5L399.2,218.5c-5.7-28.6-18.8-55.6-38.1-78c0,0,0,0,0,0C335.5,110.8,300,90,259.8,83.2
	c-9.3-1.6-18.8-2.4-28.5-2.4c-51.8,0-98.4,23.1-129.8,59.6c0,0,0,0,0,0c-19.3,22.4-32.4,49.3-38.1,78h0c-2.2,10.9-3.3,22.1-3.3,33.7
	c0,5.1,0.2,10.2,0.7,15.2c23.6-0.4,44.4-12.4,56.8-30.6c3.6-5.2,6.5-10.9,8.5-17c4.4-12.9,11.6-24.6,21.3-34.2
	c0.1-0.1,0.2-0.2,0.3-0.3c12.4-12.4,27-21.7,44.1-27.3c11.6-3.8,24.1-1.8,34,5c3.4,2.3,7.7,2.3,11,0c9.8-6.8,22.4-8.8,34-5
	c17.1,5.6,31.8,14.9,44.1,27.3c0.1,0.1,0.2,0.2,0.3,0.3c9.7,9.6,16.9,21.3,21.3,34.2c9.3,27.3,35,47.1,65.4,47.6
	c0.4-5,0.7-10.1,0.7-15.2C402.6,240.6,401.4,229.3,399.2,218.5L399.2,218.5z"/>
<path class="st1" d="M259.8,83.2c-9.3-1.6-18.8-2.4-28.5-2.4c-51.8,0-98.4,23.1-129.8,59.6c0,0,0,0,0,0
	c-19.3,22.4-32.4,49.3-38.1,78h0c-2.2,10.9-3.3,22.1-3.3,33.7c0,5.1,0.2,10.2,0.7,15.2c23.6-0.4,44.4-12.4,56.8-30.6
	C124.5,158.8,183.7,95.9,259.8,83.2L259.8,83.2z"/>
<path class="st9" d="M337.7,509.6c-1.3-0.8-2.6-1.7-3.7-2.8c-6.9-6.9-6.9-18.1,0-25.1l129.1-129.1c6.9-6.9,18.1-6.9,25.1,0
	c6.9,6.9,6.9,18.1,0,25.1L359.1,506.8C353.3,512.6,344.5,513.5,337.7,509.6z"/>
<circle class="st6" cx="359.6" cy="448.8" r="23.6"/>
<circle class="st7" cx="392.7" cy="464.3" r="35.4"/>
<g>
	<path class="st10" d="M411.5,256c-4.9-8.5-15.7-11.4-24.2-6.5c-1,0.6-3.6,2.1-6.9,4c-1.3-3.7-3.2-7-5.7-9.6
		c-21.3-21.7-101.3-21.9-122.2,0.1c-1.6,1.6-2.9,3.6-3.9,5.7c-5.3-3.5-11.3-5.3-17.3-5.3c-6,0-12,1.7-17.3,5.3l-11.4,15.4l12.4,19.5
		c2.2-6,9.8-10.6,16.3-10.6c7.3,0,16,5.8,16.9,12.9l0-0.1c3.5,13,10.3,26.7,19.3,33.3c19.5,14.1,77.1,14.7,96.6-0.1
		c6.4-4.8,11.7-14.2,15-24.8l25.9-15C413.5,275.3,416.4,264.5,411.5,256L411.5,256z"/>
	<path class="st11" d="M214,249.8c-1.1-2.2-2.4-4.1-3.9-5.7c-20.9-22-100.9-21.8-122.2-0.1c-2.5,2.6-4.4,5.8-5.7,9.6
		c-3.3-1.9-5.9-3.4-6.9-4c-8.5-4.9-19.3-2-24.2,6.5c-4.9,8.5-2,19.3,6.5,24.2l25.9,15c3.4,10.7,8.7,20,15,24.8
		c19.5,14.9,77.1,14.2,96.6,0.1c9.1-6.5,15.8-20.3,19.3-33.3c0-0.1,0-0.2,0.1-0.3c0.2-0.6,0.3-1.3,0.5-2
		C217.8,273.2,219.1,260.2,214,249.8L214,249.8z"/>
	<g>
		<path class="st12" d="M190.1,273.6c-1.7,10.1-6.5,22-10.6,25c-10.5,7.6-55.4,7.8-65,0.3c-4-3.1-7.7-15.8-8.4-26
			c-0.5-6.6,3.7-12.7,10-14.6c17.2-5.1,45.1-5.6,63.6-0.6C186.9,259.5,191.4,266.4,190.1,273.6L190.1,273.6z"/>
		<path class="st12" d="M356.4,272.9c-0.7,10.2-4.4,22.9-8.4,26c-9.5,7.5-54.4,7.3-65-0.3c-4.1-3-8.9-14.9-10.6-25
			c-1.2-7.2,3.3-14.1,10.3-16c18.5-5,46.4-4.4,63.6,0.6C352.7,260.2,356.8,266.3,356.4,272.9z"/>
	</g>
</g>
<g>
	<path class="st8" d="M304.2,281C304.2,281,304.2,281,304.2,281c-4.3,0-7.7,3.4-7.8,7.7l0,5.7c0,4.3,3.4,7.7,7.7,7.8h0
		c4.3,0,7.7-3.4,7.7-7.7l0-5.7C311.9,284.5,308.4,281,304.2,281L304.2,281z"/>
	<path class="st8" d="M158.7,280.4C158.7,280.4,158.7,280.4,158.7,280.4c-4.3,0-7.7,3.4-7.8,7.7l0,5.7c0,4.3,3.4,7.7,7.7,7.8h0
		c4.3,0,7.7-3.4,7.7-7.7l0-5.7C166.4,283.9,163,280.4,158.7,280.4z"/>
</g>
</svg>
